<svg width="18" height="13" viewBox="0 0 18 13" fill="none" xmlns="http://www.w3.org/2000/svg">
<path fill-rule="evenodd" clip-rule="evenodd" d="M5.80023 10.6668H5.79941C5.50923 10.6675 5.27344 10.9064 5.27344 11.2C5.27344 11.494 5.51006 11.7333 5.80078 11.7333H15.3633C15.6546 11.7333 15.8906 11.9721 15.8906 12.2667C15.8906 12.5612 15.6546 12.8 15.3633 12.8H5.80078C4.92847 12.8 4.21875 12.0822 4.21875 11.2C4.21875 10.5435 4.61192 9.97833 5.17236 9.73194L3.26843 1.06667H0.527344C0.236069 1.06667 0 0.827917 0 0.533333C0 0.23875 0.236069 0 0.527344 0H3.69141C3.9386 0 4.15256 0.173611 4.20625 0.417639L4.58322 2.13333H17.4727C17.6381 2.13333 17.794 2.21194 17.8937 2.34556C17.9933 2.47917 18.0251 2.65222 17.9797 2.81319L15.8703 10.2799C15.8056 10.5087 15.5987 10.6667 15.3633 10.6667H5.80229L5.80023 10.6668ZM14.9654 9.6L16.7735 3.2H4.8175L6.22375 9.6H14.9654Z" fill="black"/>
</svg>
